<?xml version="1.0" standalone="no"?>
<!DOCTYPE svg PUBLIC "-//W3C//DTD SVG 20010904//EN"
 "http://www.w3.org/TR/2001/REC-SVG-20010904/DTD/svg10.dtd">
<svg version="1.0" xmlns="http://www.w3.org/2000/svg"
 width="1080.000000pt" height="925.000000pt" viewBox="0 0 1080.000000 925.000000"
 preserveAspectRatio="xMidYMid meet">

<g transform="translate(0.000000,925.000000) scale(0.100000,-0.100000)"
fill="#000000" stroke="none">
<path d="M0 6100 l0 -3150 24 0 c15 0 39 -17 70 -50 49 -53 66 -59 86 -35 7 8
22 15 34 15 11 0 45 10 74 22 52 22 55 22 100 5 l47 -16 52 34 c39 26 58 48
77 87 14 29 47 76 73 104 42 46 54 53 100 59 31 4 59 2 71 -4 12 -6 50 -11 86
-11 37 0 75 -5 85 -12 25 -15 56 5 155 99 42 40 85 73 95 73 22 0 68 54 100
117 11 23 29 44 40 48 10 3 26 14 36 25 10 11 26 20 35 20 9 0 32 16 51 36 40
42 98 74 133 74 13 0 47 -5 75 -12 44 -10 56 -9 91 7 36 16 48 17 86 7 39 -11
49 -10 84 8 63 32 89 27 141 -27 25 -27 56 -65 68 -85 25 -42 38 -45 83 -22
17 9 42 14 57 11 66 -13 149 -50 181 -82 31 -30 40 -34 72 -29 27 5 45 1 71
-15 19 -11 44 -21 55 -21 11 0 33 -11 49 -24 64 -53 60 -55 174 60 59 60 127
117 157 134 50 27 56 28 119 19 62 -9 68 -8 90 13 19 18 22 28 16 53 -8 33
-14 238 -11 345 1 14 -6 57 -15 95 -13 58 -14 74 -3 90 14 21 14 162 1 246 -5
32 -2 56 9 83 9 21 16 47 16 57 0 10 8 23 19 28 20 11 34 94 32 187 -1 37 4
57 19 76 11 15 20 31 20 37 0 7 22 33 48 59 34 32 56 65 71 107 21 55 21 64
10 123 -12 58 -11 65 4 74 14 7 17 22 16 66 -1 47 6 72 39 142 52 111 77 133
169 148 49 8 81 9 98 2 38 -15 50 -13 82 14 15 13 39 27 53 31 40 12 70 45 70
78 0 49 74 142 121 152 24 6 29 13 39 60 13 62 59 136 103 167 54 37 85 80
113 156 19 50 38 82 62 103 33 30 38 31 96 25 34 -3 99 -9 146 -11 47 -3 97
-11 113 -17 17 -6 32 -7 40 -1 6 5 36 15 66 22 l53 13 57 -39 c67 -47 111 -59
151 -38 39 20 168 6 205 -23 14 -12 33 -18 41 -15 8 3 30 2 49 -1 27 -5 44
-19 74 -60 22 -29 49 -56 59 -58 11 -3 39 3 61 13 23 10 47 16 55 13 20 -8 27
20 32 121 4 81 7 94 36 134 23 32 34 63 44 120 16 101 26 123 77 179 25 26 49
57 56 69 19 37 39 155 38 223 -1 58 4 74 42 149 39 77 42 89 37 135 -3 28 -2
96 3 152 9 104 28 157 78 219 66 82 93 128 100 167 8 54 54 155 99 221 20 29
42 66 49 84 7 17 31 43 54 57 34 22 41 32 47 72 7 48 62 124 89 124 7 0 32 16
55 35 23 19 52 36 63 36 12 1 40 3 62 5 44 4 102 -10 152 -34 26 -13 39 -14
85 -4 29 7 69 12 88 12 46 -2 112 10 126 21 7 6 23 5 39 -1 19 -7 31 -7 40 0
7 6 20 7 29 4 11 -4 27 3 44 19 15 14 47 35 72 46 39 17 52 18 89 9 39 -10 45
-9 58 8 8 10 16 30 19 44 11 61 40 136 62 161 29 35 102 64 138 55 17 -5 35
-1 51 9 13 9 54 23 91 30 l66 14 51 -31 c41 -26 61 -32 110 -32 46 -1 68 -6
92 -24 25 -18 40 -22 66 -17 29 6 40 2 69 -24 20 -17 41 -44 48 -61 13 -32 45
-46 78 -36 11 4 29 -2 45 -14 14 -11 38 -20 54 -20 37 0 84 -39 98 -81 7 -19
20 -36 31 -39 35 -9 104 -65 104 -84 0 -28 78 -116 103 -116 12 0 37 9 54 20
26 15 38 17 59 10 36 -14 38 -14 59 22 26 45 135 148 163 155 13 3 35 -1 49
-8 14 -7 38 -12 54 -11 19 2 54 -10 100 -35 68 -36 74 -42 101 -100 23 -51 33
-63 52 -63 43 0 113 -65 151 -140 19 -38 41 -72 48 -77 26 -16 47 -58 47 -95
0 -30 5 -40 29 -54 32 -19 51 -52 51 -88 0 -12 6 -31 14 -42 10 -13 13 -33 9
-61 -5 -39 -4 -42 30 -60 20 -10 46 -33 59 -52 14 -21 35 -38 54 -43 38 -10
63 -62 71 -148 7 -67 18 -83 53 -76 16 3 36 -1 48 -9 14 -11 34 -13 67 -9 37
6 49 12 60 34 16 31 33 40 79 40 22 0 40 8 56 25 29 31 75 55 105 55 13 0 25
7 29 15 5 14 36 22 36 9 0 -4 -9 -21 -20 -40 -19 -29 -24 -32 -55 -27 -29 5
-40 0 -76 -31 -24 -20 -58 -40 -76 -45 -18 -5 -44 -23 -58 -40 -33 -39 -57
-46 -94 -27 -45 24 -71 19 -126 -19 -27 -20 -60 -43 -73 -52 -33 -23 -37 -10
-14 47 17 41 19 55 10 70 -9 13 -9 22 -1 32 16 19 -5 141 -23 134 -15 -6 -80
56 -89 85 -4 11 -13 19 -22 19 -9 0 -31 11 -50 26 -29 22 -33 31 -33 69 0 24
-5 47 -10 50 -6 3 -10 15 -10 26 0 10 -4 19 -10 19 -12 0 -24 -45 -17 -64 7
-18 -24 -31 -34 -14 -5 7 -6 37 -2 66 5 46 1 63 -29 135 -19 45 -43 114 -52
152 -21 86 -52 124 -84 104 -18 -12 -24 -10 -44 8 -13 11 -33 26 -45 32 -12 6
-25 25 -29 43 -16 75 -43 112 -107 146 -39 21 -69 31 -80 27 -9 -4 -24 -2 -32
5 -8 7 -25 10 -38 6 -33 -8 -137 -110 -137 -133 0 -11 -11 -30 -24 -42 -25
-24 -43 -24 -119 -5 -17 4 -38 2 -53 -6 -21 -12 -29 -11 -62 6 -20 11 -44 34
-52 52 -25 52 -88 120 -123 133 -23 8 -40 25 -56 54 -23 44 -71 75 -117 75
-13 0 -27 7 -30 15 -4 10 -15 12 -35 8 -16 -3 -35 0 -43 6 -8 6 -20 10 -27 9
-7 -2 -15 12 -20 32 -10 48 -44 73 -88 66 -23 -3 -53 3 -94 19 -38 16 -80 25
-114 25 -44 0 -57 4 -75 25 -12 14 -29 25 -38 25 -9 0 -21 5 -28 12 -15 15
-75 -3 -127 -38 -33 -22 -41 -24 -61 -13 -50 26 -127 -40 -140 -121 -3 -19
-12 -52 -21 -72 -9 -20 -13 -44 -10 -52 4 -10 1 -16 -8 -16 -18 0 -20 -21 -4
-37 8 -8 2 -22 -22 -53 l-34 -42 -7 41 c-19 110 -62 128 -147 61 -33 -26 -58
-39 -68 -35 -22 8 -204 -34 -225 -52 -12 -11 -22 -12 -34 -5 -11 6 -56 8 -109
5 -83 -5 -92 -4 -109 16 -13 14 -31 21 -58 21 -55 0 -118 -22 -118 -41 0 -15
-51 -59 -69 -59 -23 0 -74 -57 -96 -107 -16 -34 -32 -56 -48 -62 -27 -10 -53
-44 -80 -103 -9 -21 -21 -38 -26 -38 -14 0 -41 -85 -69 -218 -4 -21 -16 -37
-32 -45 -40 -20 -52 -53 -46 -132 5 -69 5 -69 -12 -43 -21 34 -41 43 -48 20
-3 -9 -10 -26 -14 -37 -36 -81 -41 -243 -11 -303 10 -20 22 -55 26 -77 l7 -40
-25 24 c-26 24 -47 22 -47 -6 0 -8 -14 -41 -31 -74 -32 -59 -32 -63 -13 -156
4 -19 12 -33 21 -33 18 0 16 -3 -22 -62 -16 -25 -42 -53 -56 -62 -14 -8 -38
-35 -53 -58 -15 -24 -37 -48 -49 -53 -27 -12 -35 -41 -36 -129 -1 -64 -4 -72
-38 -115 -37 -44 -38 -48 -39 -129 0 -64 3 -82 13 -78 17 7 17 -10 0 -21 -7
-4 -20 -20 -30 -35 -10 -16 -26 -28 -37 -28 -10 0 -22 -4 -25 -10 -6 -9 -105
-60 -117 -60 -3 0 -20 22 -38 50 -49 76 -89 111 -125 108 -16 -1 -46 7 -65 18
-19 10 -61 24 -93 30 -54 10 -101 3 -155 -22 -2 -1 11 -27 28 -59 17 -32 29
-59 27 -61 -2 -3 -47 38 -99 91 -71 71 -102 95 -121 95 -30 0 -77 -19 -77 -31
0 -5 -36 -8 -80 -7 -60 0 -80 4 -80 14 0 31 -71 45 -105 20 -16 -12 -21 -10
-40 12 -20 24 -26 25 -61 17 -31 -8 -43 -19 -62 -52 -12 -22 -24 -59 -26 -81
-4 -33 -17 -52 -83 -122 -43 -45 -87 -98 -97 -118 -23 -43 -37 -123 -26 -137
5 -6 11 -33 14 -60 4 -28 10 -61 16 -75 5 -14 14 -51 19 -83 10 -53 9 -61 -11
-88 -26 -35 -43 -38 -33 -6 3 12 8 49 10 82 2 33 4 68 5 79 0 10 -6 26 -15 36
-13 15 -22 17 -42 9 -22 -8 -24 -7 -18 11 7 23 -3 80 -14 80 -4 0 -13 -11 -19
-25 -6 -14 -18 -25 -26 -25 -9 0 -14 -12 -14 -36 0 -24 3 -32 8 -23 13 20 22
5 15 -24 -4 -15 -22 -35 -40 -46 -32 -18 -51 -48 -73 -116 -10 -30 -10 -30
-11 13 -1 23 -6 42 -11 42 -28 0 -130 -63 -157 -96 -39 -49 -56 -42 -36 15 12
36 12 45 2 52 -23 14 -102 -3 -136 -29 -41 -31 -77 -87 -70 -111 2 -10 -3 -25
-13 -34 -15 -12 -18 -40 -22 -198 l-5 -183 -46 -41 c-26 -23 -47 -47 -47 -53
0 -7 -11 -24 -24 -37 -13 -13 -26 -35 -30 -49 -3 -14 -12 -25 -18 -23 -9 1
-12 -21 -11 -83 1 -76 -2 -90 -27 -135 -25 -46 -28 -61 -34 -196 -5 -108 -3
-154 6 -174 11 -25 10 -29 -15 -49 l-26 -21 21 -78 c19 -67 20 -82 8 -116 -9
-29 -10 -47 -1 -72 6 -19 10 -77 10 -129 -2 -164 1 -242 10 -259 5 -9 11 -35
15 -59 6 -44 27 -82 65 -116 21 -19 28 -51 13 -60 -5 -3 -32 18 -61 47 -39 38
-56 65 -67 104 -19 65 -39 79 -121 89 -53 5 -64 4 -69 -10 -3 -9 -12 -16 -19
-16 -17 0 -75 -66 -75 -86 0 -8 -15 -21 -32 -28 -18 -8 -69 -30 -113 -50 -45
-20 -93 -36 -107 -36 -15 0 -38 -4 -52 -10 -15 -5 -28 -5 -31 0 -3 5 3 11 14
15 11 3 25 12 32 21 21 26 -17 43 -95 44 l-68 0 6 -32 c16 -82 18 -108 8 -108
-6 0 -16 18 -22 40 -6 22 -15 40 -20 40 -6 0 -10 9 -10 19 0 39 -32 62 -90 65
-65 4 -103 18 -121 44 -13 17 -69 52 -84 52 -4 0 -4 -18 0 -40 4 -22 3 -40 -1
-40 -4 0 -22 14 -38 31 -55 55 -153 129 -200 150 -49 21 -141 42 -191 42 -16
0 -47 -8 -68 -17 -34 -17 -39 -17 -62 -2 -13 9 -32 16 -41 16 -9 0 -52 -27
-97 -60 -44 -33 -92 -63 -106 -67 -35 -8 -81 -52 -81 -77 0 -11 -10 -30 -21
-42 -12 -13 -27 -34 -33 -46 -8 -16 -23 -24 -50 -28 -47 -6 -70 -34 -89 -108
-7 -29 -21 -60 -30 -69 -15 -16 -18 -16 -35 0 -22 20 -58 22 -93 3 -22 -11
-30 -11 -60 5 -20 11 -57 19 -89 19 -30 1 -64 5 -75 9 -43 17 -104 -20 -156
-96 -37 -53 -38 -89 -4 -97 31 -8 33 -32 2 -40 -12 -3 -31 -14 -43 -24 -30
-26 -74 -98 -74 -122 0 -17 -5 -21 -28 -18 -21 2 -27 8 -27 28 0 34 -31 37
-85 10 -23 -12 -45 -18 -48 -15 -11 11 48 55 73 55 25 0 53 34 36 44 -5 4 -30
9 -55 12 -35 5 -51 3 -64 -9 -9 -8 -30 -19 -47 -23 -16 -4 -54 -18 -84 -30
-62 -28 -72 -29 -65 -11 3 8 -2 20 -11 27 -8 7 -15 18 -15 25 0 14 -62 65 -79
65 -8 0 -11 -431 -11 -1455 l0 -1455 5400 0 5400 0 0 4625 0 4625 -5400 0
-5400 0 0 -3150z m2840 2782 c0 -13 -12 -22 -22 -16 -10 6 -1 24 13 24 5 0 9
-4 9 -8z m-290 -42 c0 -5 -7 -10 -15 -10 -8 0 -15 5 -15 10 0 6 7 10 15 10 8
0 15 -4 15 -10z m808 -202 c-6 -18 -28 -21 -28 -4 0 9 7 16 16 16 9 0 14 -5
12 -12z m1917 -479 c0 -7 -8 -15 -17 -17 -18 -3 -25 18 -11 32 10 10 28 1 28
-15z m-285 -705 c11 -12 11 -18 -2 -30 -16 -16 -48 -9 -48 10 0 13 20 36 31
36 4 0 12 -7 19 -16z m1472 -41 c-49 -93 -62 -124 -62 -141 0 -14 -8 -22 -22
-24 -26 -3 -35 -32 -37 -118 -1 -56 23 -212 39 -255 6 -16 5 -27 -3 -34 -7 -6
-14 -39 -15 -76 -2 -60 1 -74 38 -150 l42 -83 -47 -81 c-26 -45 -52 -84 -59
-88 -19 -13 -46 -61 -46 -83 0 -12 -7 -35 -16 -51 -10 -21 -14 -44 -10 -72 l6
-42 -17 33 c-15 28 -15 37 -4 65 7 18 13 46 12 62 -1 21 12 50 44 95 56 79 73
134 51 159 -9 10 -16 32 -16 51 0 18 -10 48 -21 67 -25 40 -22 98 10 162 18
39 18 40 -1 98 -11 32 -26 63 -34 69 -18 14 -18 28 1 44 9 7 14 26 13 44 -6
92 41 218 124 329 33 45 48 55 30 20z m-3786 -4 c10 -17 -23 -46 -37 -32 -7 7
-9 19 -6 27 7 18 33 21 43 5z m1154 -124 c0 -8 -9 -15 -20 -15 -11 0 -20 7
-20 15 0 8 9 15 20 15 11 0 20 -7 20 -15z m6470 -65 c0 -20 -52 -54 -72 -48
-14 5 40 68 58 68 8 0 14 -9 14 -20z m-6281 -237 c-15 -18 -34 -1 -25 22 5 14
9 15 21 5 12 -10 13 -16 4 -27z m2207 -22 c-3 -5 -15 -11 -26 -14 -17 -4 -19
-3 -9 9 12 15 44 20 35 5z m-4710 -262 c10 -17 -23 -46 -37 -32 -7 7 -9 19 -6
27 7 18 33 21 43 5z m899 -499 c3 -5 1 -10 -4 -10 -6 0 -11 5 -11 10 0 6 2 10
4 10 3 0 8 -4 11 -10z m3760 -269 c3 -5 1 -12 -4 -15 -12 -8 -41 3 -41 15 0
12 37 12 45 0z m49 -22 c-3 -5 -10 -7 -15 -3 -5 3 -7 10 -3 15 3 5 10 7 15 3
5 -3 7 -10 3 -15z m-2474 -469 c-8 -5 -19 -10 -25 -10 -5 0 -3 5 5 10 8 5 20
10 25 10 6 0 3 -5 -5 -10z m-54 -76 c-4 -9 -9 -15 -11 -12 -3 3 -3 13 1 22 4
9 9 15 11 12 3 -3 3 -13 -1 -22z m394 -31 c0 -5 -5 -15 -10 -23 -8 -12 -10
-11 -10 8 0 12 5 22 10 22 6 0 10 -3 10 -7z m20 -126 c0 -34 -4 -49 -15 -54
-23 -8 -31 5 -17 28 11 17 10 37 -5 92 -5 18 -4 18 16 0 16 -13 21 -29 21 -66z
m220 3 c0 -5 -4 -10 -10 -10 -5 0 -10 5 -10 10 0 6 5 10 10 10 6 0 10 -4 10
-10z m-86 -110 c-20 -28 -46 -57 -58 -65 -19 -14 -21 -14 -24 1 -4 18 84 114
105 114 8 0 -2 -21 -23 -50z m-313 -20 c-45 -46 -61 -58 -61 -45 0 13 93 104
101 100 4 -3 -14 -28 -40 -55z m-1066 -385 c0 -21 -31 -33 -46 -18 -5 5 -7 17
-3 27 9 24 49 17 49 -9z m-539 -1441 c10 -40 -1 -37 -25 7 -23 40 -23 41 -2
30 11 -7 24 -23 27 -37z m984 -124 c0 -5 -5 -10 -11 -10 -5 0 -7 5 -4 10 3 6
8 10 11 10 2 0 4 -4 4 -10z m-770 -19 c-8 -5 -26 -12 -40 -15 -24 -7 -24 -6
-6 8 11 9 29 16 40 16 17 -1 18 -2 6 -9z m134 -16 c20 -14 41 -25 45 -25 12 0
35 -29 28 -36 -3 -3 -21 5 -39 19 -18 13 -50 30 -70 37 -21 6 -38 16 -38 21 0
17 37 9 74 -16z m-329 -50 c29 -25 29 -25 6 -23 -13 2 -30 13 -39 26 -19 29
-4 28 33 -3z m485 -90 c42 -27 49 -35 31 -35 -19 0 -63 26 -105 62 -27 23 26
3 74 -27z m295 -135 c-3 -5 -11 -10 -16 -10 -6 0 -7 5 -4 10 3 6 11 10 16 10
6 0 7 -4 4 -10z"/>
<path d="M9860 8042 c0 -18 12 -42 21 -42 14 0 10 26 -6 40 -9 8 -15 8 -15 2z"/>
<path d="M2023 3613 c-1 -17 74 -79 83 -70 5 4 -70 87 -78 87 -2 0 -4 -8 -5
-17z"/>
<path d="M2300 3480 c0 -5 5 -10 10 -10 6 0 10 5 10 10 0 6 -4 10 -10 10 -5 0
-10 -4 -10 -10z"/>
<path d="M2360 3441 c0 -6 5 -13 10 -16 6 -3 10 1 10 9 0 9 -4 16 -10 16 -5 0
-10 -4 -10 -9z"/>
<path d="M2946 3384 c-9 -23 -8 -24 14 -24 13 0 20 7 20 20 0 24 -25 27 -34 4z"/>
</g>
</svg>
