<svg xmlns="http://www.w3.org/2000/svg" viewBox="0 0 64 64"><defs><style>.cls-2{fill:#b4e67e}.cls-3{fill:#4CAF50}</style></defs><g id="Headphone_information" data-name="Headphone information"><circle cx="32" cy="36" r="18" style="fill:#e3ffc4"/><path class="cls-2" d="M50 48h-2V24h2a12 12 0 0 1 0 24zM14 48h2V24h-2a12 12 0 0 0 0 24z"/><path class="cls-3" d="M55 22.92a23 23 0 0 0-46 0A14 14 0 0 0 14 50c1.92 0 2.57.14 3.28-.47a20 20 0 0 0 29.44 0c.76.65 1.54.47 3.28.47h1v6a4 4 0 0 1-4 4H33a2 2 0 0 0 0 4h14a8 8 0 0 0 8-8v-6.93c12-4.57 12-21.55 0-26.15zM32 4a19 19 0 0 1 19 18h-1c-1.92 0-2.57-.14-3.28.47a20 20 0 0 0-29.44 0c-.76-.65-1.54-.47-3.28-.47h-1A19 19 0 0 1 32 4zM14 46a10 10 0 0 1 0-20zm4-2.27V28.27a16 16 0 0 1 28 0v15.46a16 16 0 0 1-28 0zM50 46V26a10 10 0 0 1 0 20z"/><circle class="cls-3" cx="32" cy="26" r="2"/><path class="cls-3" d="M34 44V34a2 2 0 0 0-2-2h-2a2 2 0 0 0 0 4v8a2 2 0 0 0 0 4h4a2 2 0 0 0 0-4z"/></g></svg>
